<?xml version="1.0" encoding="UTF-8"?>
<svg id="_레이어_1" data-name="레이어_1" xmlns="http://www.w3.org/2000/svg" version="1.1" viewBox="0 0 230.9 36.09">
  <!-- Generator: Adobe Illustrator 30.0.0, SVG Export Plug-In . SVG Version: 2.1.1 Build 123)  -->
  <defs>
    <style>
      .st0 {
        fill: #fff;
      }
    </style>
  </defs>
  <path class="st0" d="M14.83,15.55c-.06-1.3-.35-1.67-1.25-1.76l.08-.31c.63.02,1.24.04,1.91.04.8,0,1.37-.01,2-.04l-.07.31c-.73.05-.98.54-.99,1.22-.06,1.62,0,3.57.02,4.7.24-.35,2.48-3.43,2.76-3.83-.04-1.15-.12-2-1.03-2.1l.06-.31c.59.02.99.04,1.67.04.8,0,1.42-.01,2.08-.04l-.07.31c-.8.06-1.05.42-1.07,1.18,0,1.52.05,3.67.1,4.79.93-1.19,2.1-2.81,3.15-4.32.78-1.1.46-1.6-.68-1.64l.08-.31c.67.02,1.22.04,1.91.04.8,0,1.37-.01,1.87-.04l-.07.31c-.61.11-1.2.41-2.11,1.5-1.81,2.23-3.69,4.75-5.04,6.52l-.74.16c.01-1.31-.05-3.92-.07-5.24-.33.46-3.39,4.63-3.72,5.08l-.7.16c0-1.7-.01-4.1-.1-6.42Z"/>
  <path class="st0" d="M25.37,21.5c1.18-.07,1.48-.59,1.81-1.7.45-1.51.79-2.75,1.24-4.31.36-1.28.23-1.61-.84-1.69l.1-.32c.93.04,2.13.04,3.32.04,1.07,0,1.79,0,2.94-.04.17.25.11.71-.05,1.19l-.35,1.01h-.34c.05-1.28-.13-1.69-2.58-1.69-.07.18-.23.7-.36,1.15-.19.62-.53,1.8-.63,2.13,1.95,0,2.28-.02,2.83-.98h.33c-.05.16-.71,2.47-.75,2.63h-.36c.1-.98-.19-1.16-2.18-1.16-.11.35-.48,1.69-.64,2.21-.29,1.02-.16,1.31.96,1.31,1.6,0,2.4-.7,3.2-2.02l.35.07-.41,1.38c-.19.65-.41.96-.68,1.13-1.2-.02-2.14-.04-3.25-.04-1.34,0-2.29,0-3.74.04l.1-.32Z"/>
  <path class="st0" d="M36.6,21.33c-.15-.38-.05-.89.1-1.38l.32-1.04h.44c-.31,1.82.63,2.57,1.78,2.59,1.2.02,2.04-.67,2.04-1.69,0-.71-.47-1.19-1.41-1.59-1.21-.54-2-1.22-2-2.33,0-1.5,1.25-2.58,3.63-2.58.87,0,1.71.16,2.21.42.24.37.1,1.04.02,1.27l-.3,1.04h-.44c.12-1.24-.38-2.24-1.59-2.25-1.15-.02-1.81.65-1.84,1.52-.04.83.53,1.2,1.31,1.56,1.26.6,2.08,1.29,2.08,2.43,0,1.81-1.64,2.7-3.82,2.7-1.2,0-2.21-.38-2.53-.67Z"/>
  <path class="st0" d="M44.54,21.5c1.31-.07,1.6-.56,1.93-1.72.41-1.43.73-2.48,1.14-3.96.25-.92.51-1.8.51-1.8-1.73,0-2.47.29-3.28,1.91l-.38-.08.42-1.3c.15-.43.42-1.03.64-1.21.19.13.63.19.86.19h5.48c.25,0,.67-.07.96-.19.1.25.07.79-.02,1.2l-.3,1.33-.41.05c.11-1.58-.44-1.9-2.22-1.9,0,0-.29,1-.53,1.8-.42,1.48-.73,2.54-1.13,3.97-.35,1.24-.25,1.66.96,1.7l-.08.32c-1.14-.04-1.53-.04-2.36-.04-.78,0-1.19,0-2.28.04l.11-.32Z"/>
  <path class="st0" d="M49.9,21.5c.74-.08,1.35-.34,2.34-1.46,1.9-2.17,4.01-4.82,5.42-6.58l.95-.16c-.04,1.3-.04,4.46-.01,6.45.01,1.33.29,1.67,1.13,1.75l-.1.32c-.75-.02-1.31-.04-2.02-.04-.84,0-1.54,0-2.34.04l.1-.32c1.1-.06,1.48-.43,1.53-1.36.02-.47.04-1.19.04-1.44h-2.76c-.16.19-.67.88-.98,1.31-.87,1.18-.4,1.45.63,1.49l-.1.32c-.68-.02-1.3-.04-2.04-.04-.69,0-1.18.01-1.87.04l.1-.32ZM56.92,18.21v-3.02s-2.4,3.02-2.4,3.02h2.4Z"/>
  <path class="st0" d="M66.17,21.07c-.27-.32-.55-.88-.79-1.49-.22-.53-.38-1.07-.5-1.44-.31-.01-.63-.02-.96-.05-.08.28-.33,1.12-.47,1.64-.33,1.14-.29,1.67,1.02,1.76l-.1.32c-.95-.02-1.54-.04-2.39-.04-.8,0-1.33.01-2.18.04l.1-.32c1.14-.05,1.47-.55,1.81-1.72.44-1.52.79-2.75,1.22-4.28.35-1.2.3-1.64-.82-1.7l.1-.32h3.21c2,0,3.27.62,3.27,1.99s-1.05,2.03-2.28,2.33c.17.49.39,1,.7,1.62.81,1.57,1.42,2.05,2.44,2.11l-.08.3c-.3.06-.8.12-1.2.12-1.1,0-1.7-.37-2.1-.88ZM66.9,15.42c.01-.89-.55-1.52-1.72-1.52-.1.25-.33,1.02-.44,1.39-.23.78-.52,1.76-.7,2.42,1.81.14,2.86-.78,2.86-2.29Z"/>
  <path class="st0" d="M70.06,21.5c1.31-.07,1.6-.56,1.93-1.72.41-1.43.73-2.48,1.14-3.96.25-.92.51-1.8.51-1.8-1.73,0-2.47.29-3.28,1.91l-.38-.08.42-1.3c.15-.43.42-1.03.64-1.21.19.13.63.19.86.19h5.48c.25,0,.67-.07.96-.19.1.25.07.79-.02,1.2l-.3,1.33-.41.05c.11-1.58-.44-1.9-2.22-1.9,0,0-.29,1-.53,1.8-.42,1.48-.73,2.54-1.13,3.97-.35,1.24-.25,1.66.96,1.7l-.08.32c-1.14-.04-1.53-.04-2.36-.04-.78,0-1.19,0-2.28.04l.11-.32Z"/>
  <path class="st0" d="M80.79,21.5c1.31-.07,1.6-.56,1.93-1.72.41-1.43.73-2.48,1.14-3.96.25-.92.51-1.8.51-1.8-1.73,0-2.47.29-3.28,1.91l-.38-.08.42-1.3c.15-.43.42-1.03.64-1.21.19.13.63.19.86.19h5.48c.25,0,.67-.07.96-.19.1.25.07.79-.02,1.2l-.3,1.33-.41.05c.11-1.58-.44-1.9-2.22-1.9,0,0-.29,1-.53,1.8-.42,1.48-.73,2.54-1.13,3.97-.35,1.24-.25,1.66.96,1.7l-.08.32c-1.14-.04-1.53-.04-2.36-.04-.78,0-1.19,0-2.28.04l.11-.32Z"/>
  <path class="st0" d="M87.43,21.5c1.14-.05,1.47-.55,1.79-1.72.45-1.52.8-2.75,1.24-4.28.35-1.2.3-1.64-.82-1.7l.1-.32c.74.02,1.34.04,2.08.04s1.41-.01,2.11-.04l-.1.32c-.96.06-1.28.49-1.64,1.7-.13.44-.41,1.46-.48,1.73h3.56c.07-.28.38-1.33.52-1.81.31-1.1.29-1.6-.76-1.62l.1-.32c.63.02,1.3.04,2.04.04s1.38-.01,2.23-.04l-.1.32c-1.09.02-1.44.49-1.77,1.62-.41,1.42-.85,2.91-1.26,4.37-.31,1.14-.28,1.67.91,1.72l-.1.32c-1.04-.02-1.42-.04-2.16-.04-.79,0-1.42.01-2.16.04l.1-.32c1.01-.04,1.33-.52,1.68-1.72.15-.54.5-1.71.58-2.03h-3.57c-.08.31-.42,1.48-.58,2.04-.35,1.19-.29,1.66.73,1.7l-.1.32c-.71-.01-1.31-.04-2.08-.04s-1.34,0-2.18.04l.1-.32Z"/>
  <path class="st0" d="M97.65,21.5c1.18-.07,1.48-.59,1.81-1.7.45-1.51.79-2.75,1.24-4.31.36-1.28.23-1.61-.84-1.69l.1-.32c.93.04,2.13.04,3.32.04,1.07,0,1.79,0,2.94-.04.17.25.11.71-.05,1.19l-.35,1.01h-.34c.05-1.28-.13-1.69-2.58-1.69-.07.18-.23.7-.36,1.15-.19.62-.53,1.8-.63,2.13,1.95,0,2.28-.02,2.83-.98h.33c-.05.16-.71,2.47-.75,2.63h-.36c.1-.98-.19-1.16-2.18-1.16-.11.35-.49,1.69-.64,2.21-.29,1.02-.16,1.31.96,1.31,1.6,0,2.4-.7,3.2-2.02l.35.07-.41,1.38c-.19.65-.41.96-.68,1.13-1.2-.02-2.14-.04-3.25-.04-1.34,0-2.29,0-3.74.04l.1-.32Z"/>
  <path class="st0" d="M106.97,23.26c.68-.17,1.14-.4,1.54-.78.53-.52.85-1.18,1.39-3.09.45-1.57.69-2.34,1.11-3.87.36-1.28.28-1.63-.82-1.71l.1-.32c.75.02,1.43.04,2.22.04s1.26-.01,1.99-.04l-.1.32c-.96.06-1.27.43-1.66,1.76-.45,1.56-.61,2.09-1.04,3.66-.19.71-.42,1.74-.46,2.06-.27.59-.7,1.07-1.32,1.45-.69.43-2,.79-3,.83l.06-.3Z"/>
  <path class="st0" d="M114.01,18.33c.11-2.83,2.5-5.04,5.12-5.04,2.17,0,3.5,1.49,3.39,3.68-.11,2.7-2.34,5.02-5.14,5.02-2.21,0-3.49-1.5-3.38-3.67ZM120.65,16.33c.1-1.52-.39-2.55-1.5-2.55-1.85,0-3.17,3-3.28,5.26-.08,1.51.42,2.48,1.51,2.48,2.02,0,3.17-3.26,3.27-5.19Z"/>
  <path class="st0" d="M124.42,20.99c-.33-.46-.58-1.34-.16-2.95.24-.89.44-1.55.69-2.47.38-1.34.29-1.7-.81-1.77l.1-.32c.9.04,1.39.04,2.18.04s1.12,0,2.02-.04l-.1.32c-.95.05-1.2.4-1.65,1.79-.28.89-.47,1.58-.7,2.45-.25,1.03-.29,1.75-.12,2.25.21.66.9.97,1.67.97.84,0,1.5-.25,2.02-.86.44-.52.78-1.3,1.07-2.33.25-.86.42-1.61.64-2.48.3-1.34.12-1.74-.98-1.79l.1-.32c.61.01.97.04,1.74.04.71,0,1.09-.01,1.75-.04l-.1.32c-1.08.05-1.44.47-1.78,1.79-.23.86-.39,1.49-.63,2.34-.38,1.28-.63,2.21-1.32,2.93-.74.78-1.68,1.16-2.9,1.16-1.41,0-2.27-.37-2.74-1.02Z"/>
  <path class="st0" d="M138.37,21.07c-.27-.32-.54-.88-.79-1.49-.22-.53-.38-1.07-.5-1.44-.31-.01-.63-.02-.96-.05-.08.28-.33,1.12-.47,1.64-.33,1.14-.29,1.67,1.02,1.76l-.1.32c-.94-.02-1.54-.04-2.39-.04-.8,0-1.33.01-2.18.04l.1-.32c1.14-.05,1.47-.55,1.81-1.72.44-1.52.79-2.75,1.22-4.28.35-1.2.3-1.64-.82-1.7l.1-.32h3.21c2,0,3.27.62,3.27,1.99s-1.05,2.03-2.28,2.33c.17.49.39,1,.7,1.62.81,1.57,1.42,2.05,2.44,2.11l-.08.3c-.3.06-.8.12-1.2.12-1.1,0-1.7-.37-2.1-.88ZM139.09,15.42c.01-.89-.55-1.52-1.72-1.52-.1.25-.33,1.02-.44,1.39-.23.78-.52,1.76-.7,2.42,1.8.14,2.86-.78,2.86-2.29Z"/>
  <path class="st0" d="M149.15,21.91c-1.3-2.36-2.86-5.09-3.77-6.6-.41,1.4-.86,3.13-1.22,4.61-.28,1.13-.12,1.52,1.13,1.58l-.08.32c-.69-.02-1.19-.04-1.88-.04-.64,0-1.13.01-1.82.04l.1-.32c1.13-.07,1.42-.59,1.71-1.56.41-1.36.78-2.61,1.27-4.4.3-1.12.02-1.65-1.08-1.74l.08-.32c.48.02,1.09.04,1.54.04.36,0,.76-.01,1.2-.04,1.05,1.93,2.29,4.08,3.3,5.76.36-1.28.75-2.69,1.11-4.14.23-.89-.01-1.26-1.24-1.29l.1-.32c.1,0,1.05.04,1.78.04.65,0,1.78-.04,1.89-.04l-.1.32c-1.1.04-1.41.59-1.64,1.33-.62,1.98-1.13,3.72-1.64,5.73-.1.37-.18.76-.24,1.15l-.51-.11Z"/>
  <path class="st0" d="M151.48,21.5c1.18-.07,1.48-.59,1.81-1.7.45-1.51.79-2.75,1.24-4.31.36-1.28.23-1.61-.84-1.69l.1-.32c.93.04,2.13.04,3.32.04,1.07,0,1.79,0,2.94-.04.17.25.11.71-.05,1.19l-.35,1.01h-.34c.05-1.28-.13-1.69-2.58-1.69-.07.18-.23.7-.36,1.15-.19.62-.53,1.8-.63,2.13,1.95,0,2.28-.02,2.83-.98h.33c-.05.16-.71,2.47-.75,2.63h-.36c.1-.98-.19-1.16-2.18-1.16-.11.35-.49,1.69-.64,2.21-.29,1.02-.16,1.31.96,1.31,1.6,0,2.4-.7,3.2-2.02l.35.07-.41,1.38c-.19.65-.41.96-.68,1.13-1.2-.02-2.14-.04-3.25-.04-1.34,0-2.29,0-3.74.04l.1-.32Z"/>
  <path class="st0" d="M160.73,21.5c1.37-.05,1.66-.54,2.02-1.77.07-.25.17-.59.27-.94.1-.36.13-.7.04-1.06-.16-.67-.48-1.7-.81-2.64-.39-1.04-.76-1.22-1.28-1.29l.1-.32c.74.04,1.38.04,2.06.04.75,0,1.25,0,2.08-.04l-.1.32c-1.03.06-1.27.48-1.12,1.08.21.77.59,2.05.8,2.63.47-.53,1.38-1.63,2.02-2.43.62-.79.42-1.22-.51-1.27l.1-.32c.63.02,1.15.04,1.83.04.62,0,1.26-.01,1.65-.04l-.1.32c-.61.04-1.16.36-2.16,1.37-.87.91-1.78,1.9-2.44,2.71-.18.2-.31.47-.4.78-.13.42-.23.8-.3,1.06-.38,1.37-.35,1.73.93,1.79l-.1.32c-.9-.02-1.53-.04-2.38-.04-.79,0-1.5.01-2.31.04l.1-.32Z"/>
  <path class="st0" d="M169.66,21.5c.74-.08,1.34-.34,2.34-1.46,1.9-2.17,4.01-4.82,5.42-6.58l.94-.16c-.04,1.3-.04,4.46-.01,6.45.01,1.33.29,1.67,1.13,1.75l-.1.32c-.75-.02-1.31-.04-2.02-.04-.84,0-1.54,0-2.34.04l.1-.32c1.1-.06,1.48-.43,1.53-1.36.02-.47.04-1.19.04-1.44h-2.76c-.16.19-.67.88-.98,1.31-.87,1.18-.4,1.45.63,1.49l-.1.32c-.68-.02-1.3-.04-2.04-.04-.69,0-1.17.01-1.87.04l.1-.32ZM176.69,18.21v-3.02s-2.4,3.02-2.4,3.02h2.4Z"/>
  <path class="st0" d="M179.67,21.5c1.14-.05,1.47-.55,1.79-1.72.45-1.52.8-2.75,1.24-4.28.35-1.2.3-1.64-.82-1.7l.1-.32c.74.02,1.34.04,2.08.04s1.41-.01,2.11-.04l-.1.32c-.96.06-1.28.49-1.64,1.7-.13.44-.41,1.46-.48,1.73h3.56c.07-.28.38-1.33.52-1.81.31-1.1.29-1.6-.76-1.62l.1-.32c.63.02,1.3.04,2.04.04s1.38-.01,2.23-.04l-.1.32c-1.09.02-1.44.49-1.77,1.62-.41,1.42-.85,2.91-1.26,4.37-.32,1.14-.28,1.67.91,1.72l-.1.32c-1.04-.02-1.42-.04-2.16-.04-.79,0-1.42.01-2.16.04l.1-.32c1.01-.04,1.33-.52,1.68-1.72.15-.54.5-1.71.58-2.03h-3.57c-.08.31-.42,1.48-.58,2.04-.35,1.19-.29,1.66.73,1.7l-.1.32c-.71-.01-1.31-.04-2.08-.04s-1.34,0-2.18.04l.1-.32Z"/>
  <path class="st0" d="M189.89,21.5c1.18-.07,1.48-.59,1.81-1.7.45-1.51.79-2.75,1.24-4.31.36-1.28.23-1.61-.84-1.69l.1-.32c.93.04,2.13.04,3.32.04,1.07,0,1.79,0,2.94-.04.17.25.11.71-.05,1.19l-.35,1.01h-.34c.05-1.28-.13-1.69-2.58-1.69-.07.18-.23.7-.36,1.15-.19.62-.53,1.8-.63,2.13,1.95,0,2.28-.02,2.83-.98h.33c-.05.16-.71,2.47-.75,2.63h-.36c.1-.98-.19-1.16-2.18-1.16-.11.35-.49,1.69-.64,2.21-.29,1.02-.16,1.31.96,1.31,1.6,0,2.4-.7,3.2-2.02l.35.07-.41,1.38c-.19.65-.41.96-.68,1.13-1.2-.02-2.14-.04-3.25-.04-1.34,0-2.29,0-3.74.04l.1-.32Z"/>
  <path class="st0" d="M197.56,21.5c.74-.08,1.34-.34,2.34-1.46,1.9-2.17,4.01-4.82,5.42-6.58l.94-.16c-.04,1.3-.04,4.46-.01,6.45.01,1.33.29,1.67,1.13,1.75l-.1.32c-.75-.02-1.31-.04-2.02-.04-.84,0-1.54,0-2.34.04l.1-.32c1.1-.06,1.48-.43,1.53-1.36.02-.47.04-1.19.04-1.44h-2.76c-.16.19-.67.88-.98,1.31-.87,1.18-.4,1.45.63,1.49l-.1.32c-.68-.02-1.3-.04-2.04-.04-.69,0-1.17.01-1.87.04l.1-.32ZM204.59,18.21v-3.02s-2.4,3.02-2.4,3.02h2.4Z"/>
  <path class="st0" d="M207.57,21.5c1.16-.05,1.47-.59,1.79-1.7.45-1.51.8-2.73,1.25-4.31.36-1.28.23-1.62-.84-1.69l.1-.32h3.62c1.28,0,2.18.23,2.85.65.87.55,1.31,1.48,1.3,2.58-.01,1.87-.95,3.49-2.73,4.4-1.12.56-2.25.72-3.65.72h-3.79l.1-.32ZM215.73,16.47c.01-1.76-.86-2.69-2.9-2.58-.11.3-.4,1.28-.52,1.69-.46,1.58-.75,2.6-1.2,4.17-.34,1.19-.12,1.64.84,1.64,2.63-.02,3.77-3.11,3.78-4.93Z"/>
  <path class="st0" d="M217.48,21.11c0-.5.41-.89.9-.89.51,0,.88.38.88.88s-.38.89-.88.89-.9-.38-.9-.88Z"/>
</svg>