<?xml version="1.0" encoding="UTF-8"?>
<svg id="_레이어_1" data-name="레이어_1" xmlns="http://www.w3.org/2000/svg" version="1.1" viewBox="0 0 162.55 36.09">
  <!-- Generator: Adobe Illustrator 30.0.0, SVG Export Plug-In . SVG Version: 2.1.1 Build 123)  -->
  <defs>
    <style>
      .st0 {
        fill: #fff;
      }
    </style>
  </defs>
  <path class="st0" d="M19.29,15.95c-.06-1.3-.35-1.67-1.25-1.76l.08-.31c.63.02,1.24.04,1.91.04.8,0,1.37-.01,2-.04l-.07.31c-.73.05-.98.54-.99,1.22-.06,1.62,0,3.57.02,4.7.24-.35,2.48-3.43,2.76-3.83-.04-1.15-.12-2-1.03-2.1l.06-.31c.59.02.99.04,1.67.04.8,0,1.42-.01,2.08-.04l-.07.31c-.8.06-1.05.42-1.07,1.18,0,1.52.05,3.67.1,4.79.93-1.19,2.1-2.81,3.15-4.32.78-1.1.46-1.6-.68-1.64l.08-.31c.67.02,1.22.04,1.91.04.8,0,1.37-.01,1.87-.04l-.07.31c-.61.11-1.2.41-2.11,1.5-1.81,2.23-3.69,4.75-5.04,6.52l-.74.16c.01-1.31-.05-3.92-.07-5.24-.33.46-3.39,4.63-3.72,5.08l-.7.16c0-1.7-.01-4.1-.1-6.42Z"/>
  <path class="st0" d="M29.82,21.89c1.14-.05,1.47-.55,1.79-1.72.45-1.52.8-2.75,1.24-4.28.35-1.2.3-1.64-.82-1.7l.1-.32c.74.02,1.34.04,2.08.04s1.41-.01,2.11-.04l-.1.32c-.96.06-1.28.49-1.64,1.7-.13.44-.41,1.46-.48,1.73h3.56c.07-.28.38-1.33.52-1.81.32-1.1.29-1.6-.76-1.62l.1-.32c.63.02,1.3.04,2.04.04s1.38-.01,2.23-.04l-.1.32c-1.09.02-1.44.49-1.77,1.62-.41,1.42-.85,2.91-1.26,4.37-.31,1.14-.28,1.67.91,1.72l-.1.32c-1.04-.02-1.42-.04-2.16-.04-.79,0-1.42.01-2.16.04l.1-.32c1.01-.04,1.33-.52,1.68-1.72.15-.54.5-1.71.58-2.03h-3.57c-.08.31-.42,1.48-.58,2.04-.35,1.19-.29,1.66.73,1.7l-.1.32c-.71-.01-1.31-.04-2.08-.04s-1.35,0-2.18.04l.1-.32Z"/>
  <path class="st0" d="M40.04,21.89c1.18-.07,1.48-.59,1.81-1.7.45-1.51.79-2.75,1.24-4.31.36-1.28.23-1.61-.84-1.69l.1-.32c.93.04,2.13.04,3.32.04,1.07,0,1.79,0,2.94-.04.17.25.11.71-.05,1.19l-.35,1.01h-.34c.05-1.28-.13-1.69-2.58-1.69-.07.18-.23.7-.36,1.15-.19.62-.53,1.8-.63,2.13,1.95,0,2.28-.02,2.83-.98h.33c-.05.16-.71,2.47-.75,2.63h-.36c.1-.98-.19-1.16-2.18-1.16-.11.35-.48,1.69-.64,2.21-.29,1.02-.16,1.31.96,1.31,1.6,0,2.4-.7,3.2-2.02l.35.07-.41,1.38c-.19.65-.41.96-.68,1.13-1.2-.02-2.14-.04-3.25-.04-1.34,0-2.29,0-3.74.04l.1-.32Z"/>
  <path class="st0" d="M54.23,21.46c-.27-.32-.54-.88-.79-1.49-.22-.53-.38-1.07-.5-1.44-.31-.01-.63-.02-.96-.05-.08.28-.33,1.12-.47,1.64-.33,1.14-.29,1.67,1.02,1.76l-.1.32c-.95-.02-1.54-.04-2.39-.04-.8,0-1.33.01-2.18.04l.1-.32c1.14-.05,1.47-.55,1.81-1.72.44-1.52.79-2.75,1.22-4.28.35-1.2.3-1.64-.82-1.7l.1-.32h3.21c2,0,3.27.62,3.27,1.99s-1.05,2.03-2.28,2.33c.17.49.39,1,.7,1.62.81,1.57,1.42,2.05,2.44,2.11l-.08.3c-.3.06-.8.12-1.2.12-1.1,0-1.7-.37-2.1-.88ZM54.96,15.81c.01-.89-.55-1.52-1.72-1.52-.1.25-.33,1.02-.44,1.39-.23.78-.52,1.76-.7,2.42,1.8.14,2.86-.78,2.86-2.29Z"/>
  <path class="st0" d="M57.42,21.89c1.18-.07,1.48-.59,1.81-1.7.45-1.51.79-2.75,1.24-4.31.36-1.28.23-1.61-.84-1.69l.1-.32c.93.04,2.13.04,3.32.04,1.07,0,1.79,0,2.94-.04.17.25.11.71-.05,1.19l-.35,1.01h-.34c.05-1.28-.13-1.69-2.58-1.69-.07.18-.23.7-.36,1.15-.19.62-.53,1.8-.63,2.13,1.95,0,2.28-.02,2.83-.98h.33c-.05.16-.71,2.47-.75,2.63h-.36c.1-.98-.19-1.16-2.18-1.16-.11.35-.49,1.69-.64,2.21-.29,1.02-.16,1.31.96,1.31,1.6,0,2.4-.7,3.2-2.02l.35.07-.41,1.38c-.19.65-.41.96-.68,1.13-1.2-.02-2.14-.04-3.25-.04-1.34,0-2.29,0-3.74.04l.1-.32Z"/>
  <path class="st0" d="M67.7,21.89c1.15-.05,1.47-.55,1.81-1.72.45-1.52.79-2.76,1.22-4.28.36-1.24.28-1.64-.82-1.7l.1-.32c.75.02,1.37.04,2.13.04s1.44-.01,2.1-.04l-.1.32c-.98.06-1.31.44-1.67,1.71-.41,1.39-.81,2.81-1.25,4.33-.34,1.18-.21,1.42.99,1.42,1.27,0,2.31-.48,3.21-2.16l.35.1-.42,1.28c-.23.71-.45,1.13-.76,1.34-1.3-.04-2.22-.05-3.42-.05-1.44,0-2.5.02-3.56.05l.1-.32Z"/>
  <path class="st0" d="M76.34,18.73c.11-2.83,2.5-5.04,5.12-5.04,2.17,0,3.5,1.49,3.39,3.68-.11,2.7-2.34,5.02-5.14,5.02-2.21,0-3.49-1.5-3.38-3.67ZM82.98,16.72c.1-1.52-.39-2.55-1.5-2.55-1.85,0-3.17,3-3.28,5.26-.08,1.51.42,2.48,1.51,2.48,2.02,0,3.17-3.26,3.27-5.19Z"/>
  <path class="st0" d="M86.99,15.93c-.06-1.35-.38-1.64-1.26-1.74l.08-.32c.8.02,1.42.04,2.08.04.76,0,1.48-.01,2.24-.04l-.08.32c-1.19.04-1.36.54-1.38,1.38-.02,1.54.02,3.45.07,4.61.97-1.19,2.28-2.85,3.36-4.33.8-1.1.46-1.62-.68-1.65l.1-.32c.65.02,1.2.04,1.88.04.79,0,1.37-.01,1.88-.04l-.07.32c-.61.1-1.15.41-2.08,1.5-1.87,2.19-3.89,4.79-5.25,6.51l-.75.16c0-1.67-.05-4.02-.13-6.43Z"/>
  <path class="st0" d="M93.25,21.89c1.18-.07,1.48-.59,1.81-1.7.45-1.51.79-2.75,1.24-4.31.36-1.28.23-1.61-.84-1.69l.1-.32c.93.04,2.13.04,3.32.04,1.07,0,1.79,0,2.94-.04.17.25.11.71-.05,1.19l-.35,1.01h-.34c.05-1.28-.13-1.69-2.58-1.69-.07.18-.23.7-.36,1.15-.19.62-.53,1.8-.63,2.13,1.95,0,2.28-.02,2.83-.98h.33c-.05.16-.71,2.47-.75,2.63h-.36c.1-.98-.19-1.16-2.18-1.16-.11.35-.49,1.69-.64,2.21-.29,1.02-.16,1.31.96,1.31,1.6,0,2.4-.7,3.2-2.02l.35.07-.41,1.38c-.19.65-.41.96-.68,1.13-1.2-.02-2.14-.04-3.25-.04-1.34,0-2.29,0-3.74.04l.1-.32Z"/>
  <path class="st0" d="M109.79,21.46c-.27-.32-.54-.88-.79-1.49-.22-.53-.38-1.07-.5-1.44-.31-.01-.63-.02-.96-.05-.08.28-.33,1.12-.47,1.64-.33,1.14-.29,1.67,1.02,1.76l-.1.32c-.94-.02-1.54-.04-2.39-.04-.8,0-1.33.01-2.18.04l.1-.32c1.14-.05,1.47-.55,1.81-1.72.44-1.52.79-2.75,1.22-4.28.35-1.2.3-1.64-.82-1.7l.1-.32h3.21c2,0,3.27.62,3.27,1.99s-1.05,2.03-2.28,2.33c.17.49.39,1,.7,1.62.81,1.57,1.42,2.05,2.44,2.11l-.08.3c-.3.06-.8.12-1.2.12-1.1,0-1.7-.37-2.1-.88ZM110.51,15.81c.01-.89-.54-1.52-1.72-1.52-.1.25-.33,1.02-.44,1.39-.23.78-.52,1.76-.7,2.42,1.8.14,2.86-.78,2.86-2.29Z"/>
  <path class="st0" d="M112.98,21.89c1.18-.07,1.48-.59,1.81-1.7.45-1.51.79-2.75,1.24-4.31.36-1.28.23-1.61-.84-1.69l.1-.32c.93.04,2.13.04,3.32.04,1.07,0,1.79,0,2.94-.04.17.25.11.71-.05,1.19l-.35,1.01h-.34c.05-1.28-.13-1.69-2.58-1.69-.07.18-.23.7-.36,1.15-.19.62-.53,1.8-.63,2.13,1.95,0,2.28-.02,2.83-.98h.33c-.05.16-.71,2.47-.75,2.63h-.36c.1-.98-.19-1.16-2.18-1.16-.11.35-.49,1.69-.64,2.21-.29,1.02-.16,1.31.96,1.31,1.6,0,2.4-.7,3.2-2.02l.35.07-.41,1.38c-.19.65-.41.96-.68,1.13-1.2-.02-2.14-.04-3.25-.04-1.34,0-2.29,0-3.74.04l.1-.32Z"/>
  <path class="st0" d="M121.74,21.73c-.14-.38-.05-.89.1-1.38l.31-1.04h.44c-.32,1.82.63,2.57,1.78,2.59,1.2.02,2.04-.67,2.04-1.69,0-.71-.47-1.19-1.41-1.59-1.21-.54-2-1.22-2-2.33,0-1.5,1.25-2.58,3.63-2.58.87,0,1.71.16,2.21.42.24.37.1,1.04.02,1.27l-.3,1.04h-.44c.12-1.24-.38-2.24-1.59-2.25-1.15-.02-1.8.65-1.84,1.52-.04.83.53,1.2,1.31,1.56,1.26.6,2.08,1.29,2.08,2.43,0,1.81-1.64,2.7-3.82,2.7-1.2,0-2.21-.38-2.53-.67Z"/>
  <path class="st0" d="M129.68,21.89c1.31-.07,1.6-.56,1.93-1.72.41-1.43.73-2.48,1.14-3.96.25-.92.51-1.8.51-1.8-1.73,0-2.47.29-3.28,1.91l-.38-.08.42-1.3c.15-.43.42-1.03.64-1.21.19.13.63.19.86.19h5.48c.25,0,.67-.07.96-.19.1.25.07.79-.02,1.2l-.3,1.33-.41.05c.11-1.58-.44-1.9-2.22-1.9,0,0-.29,1-.53,1.8-.42,1.48-.73,2.54-1.13,3.97-.35,1.24-.25,1.66.96,1.7l-.08.32c-1.14-.04-1.53-.04-2.36-.04-.78,0-1.19,0-2.28.04l.11-.32Z"/>
  <path class="st0" d="M137.28,21.73c-.14-.38-.05-.89.1-1.38l.31-1.04h.44c-.32,1.82.63,2.57,1.78,2.59,1.2.02,2.04-.67,2.04-1.69,0-.71-.47-1.19-1.41-1.59-1.21-.54-2-1.22-2-2.33,0-1.5,1.25-2.58,3.63-2.58.87,0,1.71.16,2.21.42.24.37.1,1.04.02,1.27l-.3,1.04h-.44c.12-1.24-.38-2.24-1.59-2.25-1.15-.02-1.8.65-1.84,1.52-.04.83.53,1.2,1.31,1.56,1.26.6,2.08,1.29,2.08,2.43,0,1.81-1.63,2.7-3.82,2.7-1.2,0-2.21-.38-2.53-.67Z"/>
</svg>